<?xml version="1.0" encoding="UTF-8" standalone="no"?>
<!-- Created with Inkscape (http://www.inkscape.org/) -->

<svg
   xmlns:dc="http://purl.org/dc/elements/1.1/"
   xmlns:cc="http://creativecommons.org/ns#"
   xmlns:rdf="http://www.w3.org/1999/02/22-rdf-syntax-ns#"
   xmlns:svg="http://www.w3.org/2000/svg"
   xmlns="http://www.w3.org/2000/svg"
   xmlns:sodipodi="http://sodipodi.sourceforge.net/DTD/sodipodi-0.dtd"
   xmlns:inkscape="http://www.inkscape.org/namespaces/inkscape"
   width="220.42242mm"
   height="39.356434mm"
   viewBox="0 0 220.42242 39.356434"
   version="1.1"
   id="svg8"
   inkscape:version="0.92.3 (2405546, 2018-03-11)"
   sodipodi:docname="logo.svg">
  <defs
     id="defs2" />
  <sodipodi:namedview
     id="base"
     pagecolor="#ffffff"
     bordercolor="#666666"
     borderopacity="1.0"
     inkscape:pageopacity="0"
     inkscape:pageshadow="2"
     inkscape:zoom="2"
     inkscape:cx="356.5821"
     inkscape:cy="-3.8425099"
     inkscape:document-units="mm"
     inkscape:current-layer="layer1"
     showgrid="false"
     showguides="true"
     inkscape:guide-bbox="true"
     inkscape:window-width="1916"
     inkscape:window-height="1041"
     inkscape:window-x="0"
     inkscape:window-y="18"
     inkscape:window-maximized="0"
     inkscape:pagecheckerboard="false">
    <sodipodi:guide
       position="351.4594,136.04017"
       orientation="0,1"
       id="guide5776"
       inkscape:locked="false" />
  </sodipodi:namedview>
  <metadata
     id="metadata5">
    <rdf:RDF>
      <cc:Work
         rdf:about="">
        <dc:format>image/svg+xml</dc:format>
        <dc:type
           rdf:resource="http://purl.org/dc/dcmitype/StillImage" />
        <dc:title></dc:title>
      </cc:Work>
    </rdf:RDF>
  </metadata>
  <g
     inkscape:label="Layer 1"
     inkscape:groupmode="layer"
     id="layer1"
     transform="translate(0,-257.64355)">
    <path
       inkscape:connector-curvature="0"
       id="path1962"
       d="m 25.459858,295.12666 c -0.240853,-0.026 -0.631413,-0.10351 -0.878411,-0.1744 -0.471792,-0.13536 -0.781555,-0.2568 -1.737886,-0.68139 -0.924544,-0.41047 -1.342437,-0.56384 -1.808409,-0.66369 -0.193072,-0.0414 -0.28342,-0.0484 -0.618816,-0.0478 l -0.392728,5.2e-4 -0.423742,0.098 c -0.461499,0.10672 -0.871122,0.21827 -2.087684,0.56858 -0.880839,0.25363 -1.588809,0.43802 -2.112005,0.55005 -2.347433,0.50269 -4.029826,0.35232 -5.287915,-0.47261 -0.2713158,-0.17791 -0.4282091,-0.30661 -0.6887621,-0.565 -0.3477329,-0.34485 -0.5086793,-0.62471 -0.6208867,-1.07964 -0.074468,-0.30189 -0.095921,-0.50989 -0.095921,-0.92973 0,-1.34539 0.52724,-3.1093 1.5323548,-5.12663 1.566387,-3.14379 3.851516,-6.04474 6.084598,-7.72433 1.238731,-0.9317 2.451766,-1.43146 3.476695,-1.43237 0.391087,-3.9e-4 0.910816,0.0993 1.339455,0.2568 0.472284,0.17355 1.135283,0.53695 1.650575,0.9047 2.403518,1.71536 4.971914,5.26579 6.37437,8.81167 0.423758,1.07142 0.729099,2.21189 0.835648,3.1212 0.03427,0.29277 0.03386,1.0648 -5.17e-4,1.28155 -0.103218,0.6469 -0.275216,0.99945 -0.731139,1.49858 -0.912074,0.99856 -1.80918,1.56628 -2.777019,1.75739 -0.220761,0.0436 -0.817371,0.0717 -1.03167,0.0485 z m 5.085245,-10.63427 c -0.623739,-0.0657 -1.214569,-0.36729 -1.687374,-0.86145 -0.266409,-0.27845 -0.443415,-0.53479 -0.638247,-0.92431 -0.830698,-1.66081 -0.786163,-4.06685 0.117654,-6.35591 0.112607,-0.28519 0.417704,-0.92197 0.567872,-1.18521 0.409261,-0.71741 0.7984,-1.23268 1.338347,-1.77212 0.652831,-0.65222 1.27215,-1.05735 1.975739,-1.29247 0.400237,-0.13373 0.707546,-0.18059 1.105758,-0.16858 0.718395,0.0217 1.295395,0.2659 1.816408,0.76887 0.686447,0.66267 1.112379,1.61925 1.275168,2.86386 0.04504,0.34432 0.06229,1.22816 0.03128,1.60194 -0.148821,1.79372 -0.792825,3.56128 -1.807466,4.96085 -0.344949,0.47581 -0.908099,1.0742 -1.308143,1.38998 -0.716274,0.56542 -1.457177,0.89767 -2.173259,0.97458 -0.237445,0.0256 -0.371305,0.0255 -0.613738,0 z M 8.7456107,282.09558 c -0.4113102,-0.0359 -0.8116604,-0.15426 -1.2481224,-0.36888 -0.5169839,-0.25421 -0.9626202,-0.58171 -1.4367678,-1.05589 -1.0297016,-1.02976 -1.843217,-2.51916 -2.2629189,-4.14304 -0.5666341,-2.19234 -0.3533195,-4.35142 0.5649976,-5.71861 0.7180087,-1.06896 1.8298082,-1.54084 3.0189461,-1.28131 0.8585193,0.18737 1.7771016,0.7709 2.5233203,1.60293 1.0008404,1.11594 1.7448434,2.59908 2.1078804,4.20199 0.409897,1.80985 0.291285,3.56938 -0.328479,4.87276 -0.364161,0.76584 -0.912271,1.35257 -1.533159,1.6412 -0.4421607,0.20553 -0.9244211,0.2909 -1.4056973,0.24885 z m 15.5773853,-8.55695 c -0.607794,-0.0948 -1.206129,-0.44444 -1.635229,-0.95557 -0.678096,-0.8077 -1.079814,-1.90293 -1.241345,-3.38438 -0.04881,-0.44757 -0.04867,-1.50894 2.33e-4,-1.99863 0.16428,-1.64439 0.577279,-3.08122 1.282199,-4.4608 0.444828,-0.87056 0.906643,-1.52252 1.501094,-2.11913 0.875053,-0.8782 1.741541,-1.30801 2.635448,-1.30729 0.413092,3.1e-4 0.726762,0.0736 1.084349,0.25325 1.157068,0.58132 1.908672,2.00559 2.143551,4.06199 0.04484,0.39263 0.05116,1.53351 0.01087,1.96366 -0.149742,1.59876 -0.559111,3.07297 -1.225461,4.41308 -0.948604,1.90776 -2.278809,3.18665 -3.635933,3.49568 -0.204457,0.0466 -0.72696,0.0683 -0.91982,0.0382 z m -8.62979,-0.3842 c -1.056915,-0.1342 -2.060305,-0.87381 -2.881346,-2.12391 -0.897899,-1.36711 -1.449841,-3.03841 -1.659598,-5.02539 -0.02956,-0.28025 -0.03692,-0.52298 -0.03618,-1.19886 10e-4,-0.7452 0.0065,-0.89311 0.04691,-1.22547 0.158808,-1.30551 0.475772,-2.34581 0.968212,-3.17774 0.561575,-0.94872 1.23978,-1.49227 2.104751,-1.68686 0.179086,-0.0403 0.741606,-0.034 0.938738,0.0105 1.217089,0.27437 2.338714,1.34494 3.164601,3.02052 0.603988,1.22541 0.964774,2.54559 1.129759,4.13403 0.05225,0.50306 0.05216,1.75874 -2.34e-4,2.25305 -0.12429,1.1743 -0.395757,2.16859 -0.821135,3.00752 -0.556557,1.09762 -1.33189,1.78304 -2.234039,1.97496 -0.152275,0.0324 -0.58448,0.055 -0.720518,0.0378 z"
       style="fill:#000000;stroke-width:0.02067015" />
    <flowRoot
       xml:space="preserve"
       id="flowRoot4806"
       style="font-style:normal;font-variant:normal;font-weight:normal;font-stretch:normal;font-size:40px;line-height:125%;font-family:'Comic Sans MS';-inkscape-font-specification:'Comic Sans MS';letter-spacing:0px;word-spacing:0px;fill:#000000;fill-opacity:1;stroke:none;stroke-width:1px;stroke-linecap:butt;stroke-linejoin:miter;stroke-opacity:1"><flowRegion
         id="flowRegion4808"><rect
           id="rect4810"
           width="1179.8582"
           height="624.27429"
           x="-179.80716"
           y="314.39764" /></flowRegion><flowPara
         id="flowPara4812" /></flowRoot>    <text
       xml:space="preserve"
       style="font-style:normal;font-weight:normal;font-size:36.31299973px;line-height:125%;font-family:Sans;letter-spacing:0px;word-spacing:0px;fill:#000000;fill-opacity:1;stroke:none;stroke-width:0.90782511px;stroke-linecap:butt;stroke-linejoin:miter;stroke-opacity:1"
       x="41.517056"
       y="291.02838"
       id="text4764-8-6-35-7"
       inkscape:export-filename="/home/psy/text4764-8-6-35-7.png"
       inkscape:export-xdpi="743.48511"
       inkscape:export-ydpi="743.48511"><tspan
         sodipodi:role="line"
         id="tspan4762-0-4-62-0"
         x="41.517056"
         y="291.02838"
         style="font-style:normal;font-variant:normal;font-weight:bold;font-stretch:normal;font-family:'Arial Black';-inkscape-font-specification:'Arial Black,  Bold';stroke-width:0.90782511px">Meowton</tspan></text>
  </g>
</svg>
