<?xml version="1.0" encoding="UTF-8" standalone="no"?>
<!-- Created with Inkscape (http://www.inkscape.org/) -->

<svg
   xmlns:dc="http://purl.org/dc/elements/1.1/"
   xmlns:cc="http://creativecommons.org/ns#"
   xmlns:rdf="http://www.w3.org/1999/02/22-rdf-syntax-ns#"
   xmlns:svg="http://www.w3.org/2000/svg"
   xmlns="http://www.w3.org/2000/svg"
   xmlns:sodipodi="http://sodipodi.sourceforge.net/DTD/sodipodi-0.dtd"
   xmlns:inkscape="http://www.inkscape.org/namespaces/inkscape"
   width="216.94766mm"
   height="36.466759mm"
   viewBox="0 0 216.94766 36.466759"
   version="1.1"
   id="svg875"
   sodipodi:docname="logo.svg"
   inkscape:version="0.92.3 (2405546, 2018-03-11)">
  <defs
     id="defs869" />
  <sodipodi:namedview
     id="base"
     pagecolor="#ffffff"
     bordercolor="#666666"
     borderopacity="1.0"
     inkscape:pageopacity="0.0"
     inkscape:pageshadow="2"
     inkscape:zoom="0.7"
     inkscape:cx="-70.394626"
     inkscape:cy="48.548414"
     inkscape:document-units="mm"
     inkscape:current-layer="layer1"
     showgrid="false"
     inkscape:window-width="1916"
     inkscape:window-height="1041"
     inkscape:window-x="0"
     inkscape:window-y="18"
     inkscape:window-maximized="0" />
  <metadata
     id="metadata872">
    <rdf:RDF>
      <cc:Work
         rdf:about="">
        <dc:format>image/svg+xml</dc:format>
        <dc:type
           rdf:resource="http://purl.org/dc/dcmitype/StillImage" />
        <dc:title></dc:title>
      </cc:Work>
    </rdf:RDF>
  </metadata>
  <g
     inkscape:label="Layer 1"
     inkscape:groupmode="layer"
     id="layer1"
     transform="translate(344.33097,-188.80829)">
    <path
       inkscape:connector-curvature="0"
       id="path1962"
       d="m -322.34588,225.25612 c -0.24085,-0.026 -0.63141,-0.10351 -0.87841,-0.1744 -0.47179,-0.13536 -0.78155,-0.2568 -1.73789,-0.68139 -0.92454,-0.41047 -1.34243,-0.56384 -1.8084,-0.66369 -0.19308,-0.0414 -0.28342,-0.0484 -0.61882,-0.0478 l -0.39273,5.3e-4 -0.42374,0.098 c -0.4615,0.10672 -0.87112,0.21826 -2.08768,0.56858 -0.88084,0.25362 -1.58881,0.43802 -2.11201,0.55005 -2.34743,0.50269 -4.02983,0.35232 -5.28791,-0.47261 -0.27132,-0.17791 -0.42821,-0.30661 -0.68877,-0.565 -0.34773,-0.34485 -0.50868,-0.62471 -0.62088,-1.07964 -0.0745,-0.30189 -0.0959,-0.50989 -0.0959,-0.92973 0,-1.34539 0.52724,-3.1093 1.53235,-5.12663 1.56639,-3.14379 3.85152,-6.04474 6.0846,-7.72433 1.23873,-0.9317 2.45176,-1.43146 3.47669,-1.43237 0.39109,-4e-4 0.91082,0.0993 1.33946,0.2568 0.47228,0.17355 1.13528,0.53695 1.65057,0.9047 2.40352,1.71536 4.97192,5.26579 6.37437,8.81167 0.42376,1.07142 0.7291,2.21189 0.83565,3.1212 0.0343,0.29277 0.0339,1.0648 -5.3e-4,1.28155 -0.10322,0.6469 -0.27521,0.99945 -0.73114,1.49858 -0.91207,0.99856 -1.80918,1.56628 -2.77702,1.75739 -0.22076,0.0436 -0.81737,0.0717 -1.03167,0.0485 z m 5.08525,-10.63427 c -0.62374,-0.0657 -1.21457,-0.36729 -1.68738,-0.86145 -0.26641,-0.27845 -0.44341,-0.53479 -0.63824,-0.92431 -0.8307,-1.66081 -0.78617,-4.06685 0.11765,-6.35591 0.11261,-0.28519 0.4177,-0.92197 0.56787,-1.18521 0.40926,-0.71741 0.7984,-1.23268 1.33835,-1.77212 0.65283,-0.65222 1.27215,-1.05735 1.97574,-1.29247 0.40023,-0.13373 0.70754,-0.18059 1.10576,-0.16858 0.71839,0.0217 1.29539,0.2659 1.8164,0.76887 0.68645,0.66267 1.11238,1.61925 1.27517,2.86386 0.045,0.34432 0.0623,1.22816 0.0313,1.60194 -0.14882,1.79372 -0.79283,3.56128 -1.80747,4.96085 -0.34495,0.47581 -0.9081,1.0742 -1.30814,1.38998 -0.71627,0.56542 -1.45718,0.89767 -2.17326,0.97458 -0.23744,0.0256 -0.3713,0.0255 -0.61374,0 z m -21.7995,-2.39681 c -0.41131,-0.0359 -0.81166,-0.15426 -1.24812,-0.36888 -0.51698,-0.25421 -0.96262,-0.58171 -1.43677,-1.05589 -1.0297,-1.02976 -1.84321,-2.51916 -2.26292,-4.14304 -0.56663,-2.19234 -0.35331,-4.35142 0.565,-5.71861 0.71801,-1.06896 1.82981,-1.54084 3.01895,-1.28131 0.85852,0.18737 1.7771,0.7709 2.52332,1.60293 1.00084,1.11594 1.74484,2.59908 2.10788,4.20199 0.4099,1.80985 0.29128,3.56938 -0.32848,4.87276 -0.36416,0.76584 -0.91227,1.35257 -1.53316,1.6412 -0.44216,0.20553 -0.92442,0.2909 -1.4057,0.24885 z m 15.57739,-8.55695 c -0.60779,-0.0948 -1.20613,-0.44444 -1.63523,-0.95557 -0.6781,-0.8077 -1.07981,-1.90293 -1.24134,-3.38438 -0.0488,-0.44757 -0.0487,-1.50894 2.3e-4,-1.99863 0.16428,-1.64439 0.57728,-3.08122 1.2822,-4.4608 0.44483,-0.87056 0.90664,-1.52252 1.50109,-2.11913 0.87505,-0.8782 1.74154,-1.30801 2.63545,-1.30729 0.41309,3.1e-4 0.72676,0.0736 1.08435,0.25325 1.15707,0.58132 1.90867,2.00559 2.14355,4.06199 0.0448,0.39263 0.0512,1.53351 0.0109,1.96366 -0.14974,1.59876 -0.55911,3.07297 -1.22546,4.41308 -0.9486,1.90776 -2.27881,3.18665 -3.63593,3.49568 -0.20446,0.0466 -0.72696,0.0683 -0.91982,0.0382 z m -8.62979,-0.3842 c -1.05692,-0.1342 -2.06031,-0.87381 -2.88135,-2.12391 -0.8979,-1.36711 -1.44984,-3.03841 -1.65959,-5.02539 -0.0296,-0.28025 -0.0369,-0.52298 -0.0362,-1.19886 10e-4,-0.7452 0.006,-0.89311 0.0469,-1.22547 0.1588,-1.30551 0.47577,-2.34581 0.96821,-3.17774 0.56157,-0.94872 1.23978,-1.49227 2.10475,-1.68686 0.17908,-0.0403 0.7416,-0.034 0.93874,0.0105 1.21709,0.27437 2.33871,1.34494 3.1646,3.02052 0.60399,1.22541 0.96477,2.54559 1.12976,4.13403 0.0523,0.50306 0.0522,1.75874 -2.4e-4,2.25305 -0.12429,1.1743 -0.39575,2.16859 -0.82113,3.00752 -0.55656,1.09762 -1.33189,1.78304 -2.23404,1.97496 -0.15228,0.0324 -0.58448,0.055 -0.72052,0.0378 z"
       style="opacity:1;fill:#000000;fill-rule:nonzero;stroke:#000000;stroke-width:0.021;stroke-miterlimit:4;stroke-dasharray:none;stroke-opacity:1;image-rendering:auto" />
    <text
       xml:space="preserve"
       style="font-style:normal;font-weight:normal;font-size:36.31299973px;line-height:125%;font-family:Sans;letter-spacing:0px;word-spacing:0px;fill:#000000;fill-opacity:1;stroke:none;stroke-width:0.90782511px;stroke-linecap:butt;stroke-linejoin:miter;stroke-opacity:1"
       x="-306.28867"
       y="221.15784"
       id="text4764-8-6-35-7"
       inkscape:export-filename="/home/psy/text4764-8-6-35-7.png"
       inkscape:export-xdpi="743.48511"
       inkscape:export-ydpi="743.48511"><tspan
         sodipodi:role="line"
         id="tspan4762-0-4-62-0"
         x="-306.28867"
         y="221.15784"
         style="font-style:normal;font-variant:normal;font-weight:bold;font-stretch:normal;font-family:'Arial Black';-inkscape-font-specification:'Arial Black,  Bold';stroke-width:0.90782511px">Meowton</tspan></text>
  </g>
</svg>
